<mxfile host="app.diagrams.net" agent="Mozilla/5.0 (Windows NT 10.0; Win64; x64) AppleWebKit/537.36 (KHTML, like Gecko) Chrome/127.0.0.0 Safari/537.36" version="24.7.7">
  <diagram name="Página-1" id="CcxzbwCyEYetWC0gsx-b">
    <mxGraphModel dx="880" dy="468" grid="1" gridSize="10" guides="1" tooltips="1" connect="1" arrows="1" fold="1" page="1" pageScale="1" pageWidth="827" pageHeight="1169" math="0" shadow="0">
      <root>
        <mxCell id="0" />
        <mxCell id="1" parent="0" />
        <mxCell id="zFWtER79WyxMLkmNeTz1-13" style="rounded=0;orthogonalLoop=1;jettySize=auto;html=1;exitX=1;exitY=0.5;exitDx=0;exitDy=0;entryX=0;entryY=0.5;entryDx=0;entryDy=0;endArrow=none;endFill=0;" edge="1" parent="1" source="zFWtER79WyxMLkmNeTz1-1" target="zFWtER79WyxMLkmNeTz1-9">
          <mxGeometry relative="1" as="geometry" />
        </mxCell>
        <mxCell id="zFWtER79WyxMLkmNeTz1-1" value="Biblioteca" style="whiteSpace=wrap;html=1;align=center;" vertex="1" parent="1">
          <mxGeometry x="200" y="220" width="100" height="40" as="geometry" />
        </mxCell>
        <mxCell id="zFWtER79WyxMLkmNeTz1-23" style="edgeStyle=none;shape=connector;rounded=0;orthogonalLoop=1;jettySize=auto;html=1;exitX=0.5;exitY=1;exitDx=0;exitDy=0;strokeColor=default;align=center;verticalAlign=middle;fontFamily=Helvetica;fontSize=11;fontColor=default;labelBackgroundColor=default;endArrow=none;endFill=0;" edge="1" parent="1" source="zFWtER79WyxMLkmNeTz1-3" target="zFWtER79WyxMLkmNeTz1-8">
          <mxGeometry relative="1" as="geometry" />
        </mxCell>
        <mxCell id="zFWtER79WyxMLkmNeTz1-3" value="Livro" style="whiteSpace=wrap;html=1;align=center;" vertex="1" parent="1">
          <mxGeometry x="530" y="220" width="100" height="40" as="geometry" />
        </mxCell>
        <mxCell id="zFWtER79WyxMLkmNeTz1-4" value="Alunos" style="whiteSpace=wrap;html=1;align=center;" vertex="1" parent="1">
          <mxGeometry x="300" y="600" width="100" height="40" as="geometry" />
        </mxCell>
        <mxCell id="zFWtER79WyxMLkmNeTz1-5" value="Professores" style="whiteSpace=wrap;html=1;align=center;" vertex="1" parent="1">
          <mxGeometry x="40" y="600" width="100" height="40" as="geometry" />
        </mxCell>
        <mxCell id="zFWtER79WyxMLkmNeTz1-29" style="edgeStyle=none;shape=connector;rounded=0;orthogonalLoop=1;jettySize=auto;html=1;exitX=0.5;exitY=1;exitDx=0;exitDy=0;entryX=1;entryY=0.5;entryDx=0;entryDy=0;strokeColor=default;align=center;verticalAlign=middle;fontFamily=Helvetica;fontSize=11;fontColor=default;labelBackgroundColor=default;endArrow=none;endFill=0;" edge="1" parent="1" source="zFWtER79WyxMLkmNeTz1-7" target="zFWtER79WyxMLkmNeTz1-28">
          <mxGeometry relative="1" as="geometry" />
        </mxCell>
        <mxCell id="zFWtER79WyxMLkmNeTz1-7" value="Pessoa" style="whiteSpace=wrap;html=1;align=center;" vertex="1" parent="1">
          <mxGeometry x="180" y="400" width="100" height="40" as="geometry" />
        </mxCell>
        <mxCell id="zFWtER79WyxMLkmNeTz1-26" style="edgeStyle=none;shape=connector;rounded=0;orthogonalLoop=1;jettySize=auto;html=1;exitX=0;exitY=0.5;exitDx=0;exitDy=0;entryX=1;entryY=0.5;entryDx=0;entryDy=0;strokeColor=default;align=center;verticalAlign=middle;fontFamily=Helvetica;fontSize=11;fontColor=default;labelBackgroundColor=default;endArrow=none;endFill=0;" edge="1" parent="1" source="zFWtER79WyxMLkmNeTz1-8" target="zFWtER79WyxMLkmNeTz1-25">
          <mxGeometry relative="1" as="geometry" />
        </mxCell>
        <mxCell id="zFWtER79WyxMLkmNeTz1-8" value="Empréstimo" style="whiteSpace=wrap;html=1;align=center;" vertex="1" parent="1">
          <mxGeometry x="530" y="400" width="100" height="40" as="geometry" />
        </mxCell>
        <mxCell id="zFWtER79WyxMLkmNeTz1-22" style="rounded=0;orthogonalLoop=1;jettySize=auto;html=1;exitX=1;exitY=0.5;exitDx=0;exitDy=0;entryX=0;entryY=0.5;entryDx=0;entryDy=0;endArrow=none;endFill=0;" edge="1" parent="1" source="zFWtER79WyxMLkmNeTz1-9" target="zFWtER79WyxMLkmNeTz1-3">
          <mxGeometry relative="1" as="geometry" />
        </mxCell>
        <mxCell id="zFWtER79WyxMLkmNeTz1-9" value="Gerencia" style="shape=rhombus;perimeter=rhombusPerimeter;whiteSpace=wrap;html=1;align=center;" vertex="1" parent="1">
          <mxGeometry x="350" y="215" width="110" height="50" as="geometry" />
        </mxCell>
        <mxCell id="zFWtER79WyxMLkmNeTz1-27" style="edgeStyle=none;shape=connector;rounded=0;orthogonalLoop=1;jettySize=auto;html=1;exitX=0;exitY=0.5;exitDx=0;exitDy=0;entryX=1;entryY=0.5;entryDx=0;entryDy=0;strokeColor=default;align=center;verticalAlign=middle;fontFamily=Helvetica;fontSize=11;fontColor=default;labelBackgroundColor=default;endArrow=none;endFill=0;" edge="1" parent="1" source="zFWtER79WyxMLkmNeTz1-25" target="zFWtER79WyxMLkmNeTz1-7">
          <mxGeometry relative="1" as="geometry" />
        </mxCell>
        <mxCell id="zFWtER79WyxMLkmNeTz1-25" value="Solicita" style="shape=rhombus;perimeter=rhombusPerimeter;whiteSpace=wrap;html=1;align=center;" vertex="1" parent="1">
          <mxGeometry x="340" y="395" width="110" height="50" as="geometry" />
        </mxCell>
        <mxCell id="zFWtER79WyxMLkmNeTz1-28" value="" style="triangle;whiteSpace=wrap;html=1;fontFamily=Helvetica;fontSize=11;fontColor=default;labelBackgroundColor=default;rotation=-90;" vertex="1" parent="1">
          <mxGeometry x="200" y="490" width="60" height="80" as="geometry" />
        </mxCell>
        <mxCell id="zFWtER79WyxMLkmNeTz1-32" style="edgeStyle=none;shape=connector;rounded=0;orthogonalLoop=1;jettySize=auto;html=1;exitX=0.5;exitY=0;exitDx=0;exitDy=0;entryX=0;entryY=1;entryDx=0;entryDy=0;entryPerimeter=0;strokeColor=default;align=center;verticalAlign=middle;fontFamily=Helvetica;fontSize=11;fontColor=default;labelBackgroundColor=default;endArrow=none;endFill=0;" edge="1" parent="1" source="zFWtER79WyxMLkmNeTz1-4" target="zFWtER79WyxMLkmNeTz1-28">
          <mxGeometry relative="1" as="geometry" />
        </mxCell>
        <mxCell id="zFWtER79WyxMLkmNeTz1-33" style="edgeStyle=none;shape=connector;rounded=0;orthogonalLoop=1;jettySize=auto;html=1;exitX=0.5;exitY=0;exitDx=0;exitDy=0;entryX=0.017;entryY=0.025;entryDx=0;entryDy=0;entryPerimeter=0;strokeColor=default;align=center;verticalAlign=middle;fontFamily=Helvetica;fontSize=11;fontColor=default;labelBackgroundColor=default;endArrow=none;endFill=0;" edge="1" parent="1" source="zFWtER79WyxMLkmNeTz1-5" target="zFWtER79WyxMLkmNeTz1-28">
          <mxGeometry relative="1" as="geometry" />
        </mxCell>
        <mxCell id="zFWtER79WyxMLkmNeTz1-60" style="edgeStyle=none;shape=connector;rounded=0;orthogonalLoop=1;jettySize=auto;html=1;exitX=0;exitY=1;exitDx=0;exitDy=0;entryX=1;entryY=0;entryDx=0;entryDy=0;strokeColor=default;align=center;verticalAlign=middle;fontFamily=Helvetica;fontSize=11;fontColor=default;labelBackgroundColor=default;endArrow=none;endFill=0;" edge="1" parent="1" source="zFWtER79WyxMLkmNeTz1-34" target="zFWtER79WyxMLkmNeTz1-8">
          <mxGeometry relative="1" as="geometry" />
        </mxCell>
        <mxCell id="zFWtER79WyxMLkmNeTz1-34" value="Data de empréstimo" style="ellipse;whiteSpace=wrap;html=1;align=left;spacingRight=0;spacingLeft=30;" vertex="1" parent="1">
          <mxGeometry x="650" y="370" width="20" height="10" as="geometry" />
        </mxCell>
        <mxCell id="zFWtER79WyxMLkmNeTz1-58" style="edgeStyle=none;shape=connector;rounded=0;orthogonalLoop=1;jettySize=auto;html=1;exitX=0;exitY=0.5;exitDx=0;exitDy=0;entryX=1;entryY=0.5;entryDx=0;entryDy=0;strokeColor=default;align=center;verticalAlign=middle;fontFamily=Helvetica;fontSize=11;fontColor=default;labelBackgroundColor=default;endArrow=none;endFill=0;" edge="1" parent="1" source="zFWtER79WyxMLkmNeTz1-35" target="zFWtER79WyxMLkmNeTz1-8">
          <mxGeometry relative="1" as="geometry" />
        </mxCell>
        <mxCell id="zFWtER79WyxMLkmNeTz1-35" value="Data de devolução" style="ellipse;whiteSpace=wrap;html=1;align=left;spacingRight=0;spacingLeft=30;" vertex="1" parent="1">
          <mxGeometry x="650" y="410" width="20" height="10" as="geometry" />
        </mxCell>
        <mxCell id="zFWtER79WyxMLkmNeTz1-55" style="edgeStyle=none;shape=connector;rounded=0;orthogonalLoop=1;jettySize=auto;html=1;exitX=0;exitY=1;exitDx=0;exitDy=0;entryX=1;entryY=0;entryDx=0;entryDy=0;strokeColor=default;align=center;verticalAlign=middle;fontFamily=Helvetica;fontSize=11;fontColor=default;labelBackgroundColor=default;endArrow=none;endFill=0;" edge="1" parent="1" source="zFWtER79WyxMLkmNeTz1-40" target="zFWtER79WyxMLkmNeTz1-3">
          <mxGeometry relative="1" as="geometry" />
        </mxCell>
        <mxCell id="zFWtER79WyxMLkmNeTz1-40" value="Título" style="ellipse;whiteSpace=wrap;html=1;align=left;spacingRight=0;spacingLeft=30;" vertex="1" parent="1">
          <mxGeometry x="650" y="190" width="20" height="10" as="geometry" />
        </mxCell>
        <mxCell id="zFWtER79WyxMLkmNeTz1-56" style="edgeStyle=none;shape=connector;rounded=0;orthogonalLoop=1;jettySize=auto;html=1;exitX=0;exitY=0.5;exitDx=0;exitDy=0;entryX=1;entryY=0.5;entryDx=0;entryDy=0;strokeColor=default;align=center;verticalAlign=middle;fontFamily=Helvetica;fontSize=11;fontColor=default;labelBackgroundColor=default;endArrow=none;endFill=0;" edge="1" parent="1" source="zFWtER79WyxMLkmNeTz1-41" target="zFWtER79WyxMLkmNeTz1-3">
          <mxGeometry relative="1" as="geometry" />
        </mxCell>
        <mxCell id="zFWtER79WyxMLkmNeTz1-41" value="Autor" style="ellipse;whiteSpace=wrap;html=1;align=left;spacingRight=0;spacingLeft=30;" vertex="1" parent="1">
          <mxGeometry x="670" y="220" width="20" height="10" as="geometry" />
        </mxCell>
        <mxCell id="zFWtER79WyxMLkmNeTz1-57" style="edgeStyle=none;shape=connector;rounded=0;orthogonalLoop=1;jettySize=auto;html=1;exitX=0;exitY=0.5;exitDx=0;exitDy=0;entryX=1;entryY=0.5;entryDx=0;entryDy=0;strokeColor=default;align=center;verticalAlign=middle;fontFamily=Helvetica;fontSize=11;fontColor=default;labelBackgroundColor=default;endArrow=none;endFill=0;" edge="1" parent="1" source="zFWtER79WyxMLkmNeTz1-42" target="zFWtER79WyxMLkmNeTz1-3">
          <mxGeometry relative="1" as="geometry" />
        </mxCell>
        <mxCell id="zFWtER79WyxMLkmNeTz1-42" value="Editora" style="ellipse;whiteSpace=wrap;html=1;align=left;spacingRight=0;spacingLeft=30;" vertex="1" parent="1">
          <mxGeometry x="680" y="250" width="20" height="10" as="geometry" />
        </mxCell>
        <mxCell id="zFWtER79WyxMLkmNeTz1-47" style="edgeStyle=none;shape=connector;rounded=0;orthogonalLoop=1;jettySize=auto;html=1;exitX=0;exitY=0;exitDx=0;exitDy=0;entryX=1;entryY=1;entryDx=0;entryDy=0;strokeColor=default;align=center;verticalAlign=middle;fontFamily=Helvetica;fontSize=11;fontColor=default;labelBackgroundColor=default;endArrow=none;endFill=0;" edge="1" parent="1" source="zFWtER79WyxMLkmNeTz1-43" target="zFWtER79WyxMLkmNeTz1-3">
          <mxGeometry relative="1" as="geometry" />
        </mxCell>
        <mxCell id="zFWtER79WyxMLkmNeTz1-43" value="ISBN" style="ellipse;whiteSpace=wrap;html=1;align=left;spacingRight=0;spacingLeft=30;" vertex="1" parent="1">
          <mxGeometry x="660" y="280" width="20" height="10" as="geometry" />
        </mxCell>
        <mxCell id="zFWtER79WyxMLkmNeTz1-54" style="edgeStyle=none;shape=connector;rounded=0;orthogonalLoop=1;jettySize=auto;html=1;exitX=0.5;exitY=1;exitDx=0;exitDy=0;entryX=0.5;entryY=0;entryDx=0;entryDy=0;strokeColor=default;align=center;verticalAlign=middle;fontFamily=Helvetica;fontSize=11;fontColor=default;labelBackgroundColor=default;endArrow=none;endFill=0;" edge="1" parent="1" source="zFWtER79WyxMLkmNeTz1-46" target="zFWtER79WyxMLkmNeTz1-3">
          <mxGeometry relative="1" as="geometry" />
        </mxCell>
        <mxCell id="zFWtER79WyxMLkmNeTz1-46" value="Status" style="ellipse;whiteSpace=wrap;html=1;align=left;spacingRight=0;spacingLeft=30;" vertex="1" parent="1">
          <mxGeometry x="580" y="180" width="20" height="10" as="geometry" />
        </mxCell>
        <mxCell id="zFWtER79WyxMLkmNeTz1-67" style="edgeStyle=none;shape=connector;rounded=0;orthogonalLoop=1;jettySize=auto;html=1;exitX=1;exitY=1;exitDx=0;exitDy=0;entryX=0;entryY=0;entryDx=0;entryDy=0;strokeColor=default;align=center;verticalAlign=middle;fontFamily=Helvetica;fontSize=11;fontColor=default;labelBackgroundColor=default;endArrow=none;endFill=0;" edge="1" parent="1" source="zFWtER79WyxMLkmNeTz1-62" target="zFWtER79WyxMLkmNeTz1-7">
          <mxGeometry relative="1" as="geometry" />
        </mxCell>
        <mxCell id="zFWtER79WyxMLkmNeTz1-62" value="RG" style="ellipse;whiteSpace=wrap;html=1;align=center;spacingRight=0;spacingLeft=0;labelBackgroundColor=none;fillColor=#000000;spacingBottom=30;" vertex="1" parent="1">
          <mxGeometry x="130" y="360" width="20" height="10" as="geometry" />
        </mxCell>
        <mxCell id="zFWtER79WyxMLkmNeTz1-75" style="edgeStyle=none;shape=connector;rounded=0;orthogonalLoop=1;jettySize=auto;html=1;exitX=0.5;exitY=1;exitDx=0;exitDy=0;entryX=0.5;entryY=0;entryDx=0;entryDy=0;strokeColor=default;align=center;verticalAlign=middle;fontFamily=Helvetica;fontSize=11;fontColor=default;labelBackgroundColor=default;endArrow=none;endFill=0;" edge="1" parent="1" source="zFWtER79WyxMLkmNeTz1-68" target="zFWtER79WyxMLkmNeTz1-7">
          <mxGeometry relative="1" as="geometry" />
        </mxCell>
        <mxCell id="zFWtER79WyxMLkmNeTz1-68" value="Nome" style="ellipse;whiteSpace=wrap;html=1;align=center;spacingRight=0;spacingLeft=0;labelBackgroundColor=none;fillColor=#ffffff;spacingBottom=30;" vertex="1" parent="1">
          <mxGeometry x="220" y="340" width="20" height="10" as="geometry" />
        </mxCell>
        <mxCell id="zFWtER79WyxMLkmNeTz1-74" style="edgeStyle=none;shape=connector;rounded=0;orthogonalLoop=1;jettySize=auto;html=1;exitX=0.5;exitY=1;exitDx=0;exitDy=0;entryX=1;entryY=0;entryDx=0;entryDy=0;strokeColor=default;align=center;verticalAlign=middle;fontFamily=Helvetica;fontSize=11;fontColor=default;labelBackgroundColor=default;endArrow=none;endFill=0;" edge="1" parent="1" source="zFWtER79WyxMLkmNeTz1-69" target="zFWtER79WyxMLkmNeTz1-7">
          <mxGeometry relative="1" as="geometry" />
        </mxCell>
        <mxCell id="zFWtER79WyxMLkmNeTz1-69" value="Telefone" style="ellipse;shape=doubleEllipse;margin=3;whiteSpace=wrap;html=1;align=center;fontFamily=Helvetica;fontSize=11;fontColor=default;labelBackgroundColor=default;spacingBottom=30;" vertex="1" parent="1">
          <mxGeometry x="320" y="350" width="20" height="10" as="geometry" />
        </mxCell>
        <mxCell id="zFWtER79WyxMLkmNeTz1-77" style="edgeStyle=none;shape=connector;rounded=0;orthogonalLoop=1;jettySize=auto;html=1;exitX=0;exitY=0;exitDx=0;exitDy=0;entryX=1;entryY=1;entryDx=0;entryDy=0;strokeColor=default;align=center;verticalAlign=middle;fontFamily=Helvetica;fontSize=11;fontColor=default;labelBackgroundColor=default;endArrow=none;endFill=0;" edge="1" parent="1" source="zFWtER79WyxMLkmNeTz1-76" target="zFWtER79WyxMLkmNeTz1-8">
          <mxGeometry relative="1" as="geometry" />
        </mxCell>
        <mxCell id="zFWtER79WyxMLkmNeTz1-76" value="Atraso" style="ellipse;whiteSpace=wrap;html=1;align=left;dashed=1;fontFamily=Helvetica;fontSize=11;fontColor=default;labelBackgroundColor=default;spacingLeft=30;" vertex="1" parent="1">
          <mxGeometry x="660" y="450" width="20" height="10" as="geometry" />
        </mxCell>
        <mxCell id="zFWtER79WyxMLkmNeTz1-80" style="edgeStyle=none;shape=connector;rounded=0;orthogonalLoop=1;jettySize=auto;html=1;exitX=0.5;exitY=0;exitDx=0;exitDy=0;entryX=0.75;entryY=1;entryDx=0;entryDy=0;strokeColor=default;align=center;verticalAlign=middle;fontFamily=Helvetica;fontSize=11;fontColor=default;labelBackgroundColor=default;endArrow=none;endFill=0;" edge="1" parent="1" source="zFWtER79WyxMLkmNeTz1-78" target="zFWtER79WyxMLkmNeTz1-8">
          <mxGeometry relative="1" as="geometry" />
        </mxCell>
        <mxCell id="zFWtER79WyxMLkmNeTz1-78" value="Multa" style="ellipse;whiteSpace=wrap;html=1;align=left;spacingRight=0;spacingLeft=30;" vertex="1" parent="1">
          <mxGeometry x="630" y="470" width="20" height="10" as="geometry" />
        </mxCell>
        <mxCell id="zFWtER79WyxMLkmNeTz1-90" style="edgeStyle=none;shape=connector;rounded=0;orthogonalLoop=1;jettySize=auto;html=1;exitX=0;exitY=0.5;exitDx=0;exitDy=0;entryX=1;entryY=0;entryDx=0;entryDy=0;strokeColor=default;align=center;verticalAlign=middle;fontFamily=Helvetica;fontSize=11;fontColor=default;labelBackgroundColor=default;endArrow=none;endFill=0;" edge="1" parent="1" source="zFWtER79WyxMLkmNeTz1-82" target="zFWtER79WyxMLkmNeTz1-4">
          <mxGeometry relative="1" as="geometry" />
        </mxCell>
        <mxCell id="zFWtER79WyxMLkmNeTz1-82" value="Matrícula" style="ellipse;whiteSpace=wrap;html=1;align=left;spacingRight=0;spacingLeft=30;labelBackgroundColor=none;fillColor=#000000;spacingBottom=0;" vertex="1" parent="1">
          <mxGeometry x="430" y="600" width="20" height="10" as="geometry" />
        </mxCell>
        <mxCell id="zFWtER79WyxMLkmNeTz1-85" style="edgeStyle=none;shape=connector;rounded=0;orthogonalLoop=1;jettySize=auto;html=1;exitX=0;exitY=0.5;exitDx=0;exitDy=0;entryX=1;entryY=0;entryDx=0;entryDy=0;strokeColor=default;align=center;verticalAlign=middle;fontFamily=Helvetica;fontSize=11;fontColor=default;labelBackgroundColor=default;endArrow=none;endFill=0;" edge="1" parent="1" source="zFWtER79WyxMLkmNeTz1-84" target="zFWtER79WyxMLkmNeTz1-5">
          <mxGeometry relative="1" as="geometry" />
        </mxCell>
        <mxCell id="zFWtER79WyxMLkmNeTz1-84" value="Matrícula" style="ellipse;whiteSpace=wrap;html=1;align=left;spacingRight=0;spacingLeft=30;labelBackgroundColor=none;fillColor=#000000;spacingBottom=0;" vertex="1" parent="1">
          <mxGeometry x="160" y="590" width="20" height="10" as="geometry" />
        </mxCell>
        <mxCell id="zFWtER79WyxMLkmNeTz1-88" style="edgeStyle=none;shape=connector;rounded=0;orthogonalLoop=1;jettySize=auto;html=1;exitX=0;exitY=0;exitDx=0;exitDy=0;entryX=1;entryY=0.5;entryDx=0;entryDy=0;strokeColor=default;align=center;verticalAlign=middle;fontFamily=Helvetica;fontSize=11;fontColor=default;labelBackgroundColor=default;endArrow=none;endFill=0;" edge="1" parent="1" source="zFWtER79WyxMLkmNeTz1-86" target="zFWtER79WyxMLkmNeTz1-5">
          <mxGeometry relative="1" as="geometry" />
        </mxCell>
        <mxCell id="zFWtER79WyxMLkmNeTz1-86" value="Departamento" style="ellipse;whiteSpace=wrap;html=1;align=left;spacingRight=0;spacingLeft=30;labelBackgroundColor=none;fillColor=#ffffff;spacingBottom=0;" vertex="1" parent="1">
          <mxGeometry x="160" y="630" width="20" height="10" as="geometry" />
        </mxCell>
        <mxCell id="zFWtER79WyxMLkmNeTz1-92" style="edgeStyle=none;shape=connector;rounded=0;orthogonalLoop=1;jettySize=auto;html=1;exitX=0;exitY=0.5;exitDx=0;exitDy=0;entryX=1;entryY=0.75;entryDx=0;entryDy=0;strokeColor=default;align=center;verticalAlign=middle;fontFamily=Helvetica;fontSize=11;fontColor=default;labelBackgroundColor=default;endArrow=none;endFill=0;" edge="1" parent="1" source="zFWtER79WyxMLkmNeTz1-91" target="zFWtER79WyxMLkmNeTz1-4">
          <mxGeometry relative="1" as="geometry" />
        </mxCell>
        <mxCell id="zFWtER79WyxMLkmNeTz1-91" value="Departamento" style="ellipse;whiteSpace=wrap;html=1;align=left;spacingRight=0;spacingLeft=30;labelBackgroundColor=none;fillColor=#ffffff;spacingBottom=0;" vertex="1" parent="1">
          <mxGeometry x="430" y="630" width="20" height="10" as="geometry" />
        </mxCell>
        <mxCell id="zFWtER79WyxMLkmNeTz1-93" value="1" style="text;html=1;align=center;verticalAlign=middle;whiteSpace=wrap;rounded=0;fontFamily=Helvetica;fontSize=11;fontColor=default;labelBackgroundColor=default;" vertex="1" parent="1">
          <mxGeometry x="280" y="200" width="60" height="30" as="geometry" />
        </mxCell>
        <mxCell id="zFWtER79WyxMLkmNeTz1-94" value="N" style="text;html=1;align=center;verticalAlign=middle;whiteSpace=wrap;rounded=0;fontFamily=Helvetica;fontSize=11;fontColor=default;labelBackgroundColor=default;" vertex="1" parent="1">
          <mxGeometry x="490" y="210" width="60" height="30" as="geometry" />
        </mxCell>
        <mxCell id="zFWtER79WyxMLkmNeTz1-95" value="N" style="text;html=1;align=center;verticalAlign=middle;whiteSpace=wrap;rounded=0;fontFamily=Helvetica;fontSize=11;fontColor=default;labelBackgroundColor=default;" vertex="1" parent="1">
          <mxGeometry x="520" y="370" width="60" height="30" as="geometry" />
        </mxCell>
        <mxCell id="zFWtER79WyxMLkmNeTz1-96" value="N" style="text;html=1;align=center;verticalAlign=middle;whiteSpace=wrap;rounded=0;fontFamily=Helvetica;fontSize=11;fontColor=default;labelBackgroundColor=default;" vertex="1" parent="1">
          <mxGeometry x="490" y="395" width="60" height="30" as="geometry" />
        </mxCell>
        <mxCell id="zFWtER79WyxMLkmNeTz1-97" value="1" style="text;html=1;align=center;verticalAlign=middle;whiteSpace=wrap;rounded=0;fontFamily=Helvetica;fontSize=11;fontColor=default;labelBackgroundColor=default;" vertex="1" parent="1">
          <mxGeometry x="260" y="395" width="60" height="30" as="geometry" />
        </mxCell>
        <mxCell id="zFWtER79WyxMLkmNeTz1-98" value="P" style="text;html=1;align=center;verticalAlign=middle;whiteSpace=wrap;rounded=0;fontFamily=Helvetica;fontSize=11;fontColor=default;labelBackgroundColor=default;" vertex="1" parent="1">
          <mxGeometry x="230" y="500" width="60" height="30" as="geometry" />
        </mxCell>
      </root>
    </mxGraphModel>
  </diagram>
</mxfile>
